<?xml version="1.0" encoding="utf-8"?>
<!-- Generator: Adobe Illustrator 27.0.0, SVG Export Plug-In . SVG Version: 6.00 Build 0)  -->
<svg version="1.1" id="Layer_1" xmlns="http://www.w3.org/2000/svg" xmlns:xlink="http://www.w3.org/1999/xlink" x="0px" y="0px"
	 viewBox="0 0 40 40" style="enable-background:new 0 0 40 40;" xml:space="preserve">
<style type="text/css">
	.st0{fill:#FFFFFF;}
</style>
<g>
	<path class="st0" d="M12.62,40c-0.97,0-1.8-0.34-2.48-1.02c-0.68-0.68-1.02-1.51-1.02-2.48s0.34-1.8,1.02-2.48
		c0.68-0.68,1.51-1.02,2.48-1.02c0.97,0,1.8,0.34,2.48,1.02c0.68,0.68,1.02,1.51,1.02,2.48s-0.34,1.8-1.02,2.48
		C14.43,39.66,13.6,40,12.62,40z M32.11,40c-0.97,0-1.8-0.34-2.48-1.02c-0.68-0.68-1.02-1.51-1.02-2.48s0.34-1.8,1.02-2.48
		c0.68-0.68,1.51-1.02,2.48-1.02c0.97,0,1.8,0.34,2.48,1.02c0.68,0.68,1.02,1.51,1.02,2.48s-0.34,1.8-1.02,2.48
		C33.92,39.66,33.09,40,32.11,40z M8.97,3.85h27.28c1.17,0,2.06,0.52,2.68,1.56c0.62,1.04,0.63,2.1,0.05,3.17L33.23,19
		c-0.42,0.68-0.95,1.24-1.58,1.68c-0.63,0.44-1.36,0.66-2.17,0.66H15.06l-2.39,4.53h23.48v4H12.14c-1.62,0-2.79-0.55-3.48-1.66
		c-0.7-1.1-0.67-2.31,0.07-3.61l2.97-5.46L4.59,4h-4V0h6.58L8.97,3.85z"/>
</g>
</svg>
