<?xml version="1.0" encoding="utf-8"?>
<!-- Generator: Adobe Illustrator 27.0.0, SVG Export Plug-In . SVG Version: 6.00 Build 0)  -->
<svg version="1.1" id="Layer_1" xmlns="http://www.w3.org/2000/svg" xmlns:xlink="http://www.w3.org/1999/xlink" x="0px" y="0px"
	 viewBox="0 0 48 48" style="enable-background:new 0 0 48 48;" xml:space="preserve">
<style type="text/css">
	.st0{fill:#FFFFFF;}
</style>
<path class="st0" d="M19.2,35.85l13.3-8.75l-13.3-8.8V35.85z M7.45,43.4c-1.3,0-2.41-0.47-3.32-1.4s-1.38-2.05-1.38-3.35v-27.8h12.1
	v-4.4c0-1.3,0.46-2.42,1.38-3.35c0.92-0.93,2.02-1.4,3.32-1.4h8.9c1.3,0,2.41,0.47,3.33,1.4c0.92,0.93,1.38,2.05,1.38,3.35v4.4H45.3
	v27.8c0,1.3-0.47,2.42-1.4,3.35c-0.93,0.93-2.05,1.4-3.35,1.4H7.45z M19.55,10.85h8.9v-4.4h-8.9V10.85z"/>
</svg>
